<mxfile host="app.diagrams.net" modified="2021-09-13T09:03:02.082Z" agent="5.0 (Windows NT 10.0; Win64; x64) AppleWebKit/537.36 (KHTML, like Gecko) Chrome/92.0.4515.131 Safari/537.36 Edg/92.0.902.67" etag="pkr17lsmXo1I9sSDHLdv" version="15.1.2" type="github" pages="2">
  <diagram id="EyFmpGivz5z6K1X25vsu" name="第 1 页">
    <mxGraphModel dx="539" dy="321" grid="1" gridSize="10" guides="1" tooltips="1" connect="1" arrows="1" fold="1" page="1" pageScale="1" pageWidth="827" pageHeight="1169" math="0" shadow="0">
      <root>
        <mxCell id="0" />
        <mxCell id="1" parent="0" />
        <mxCell id="eCSi_L9bbj4N2d2f0AKq-4" value="方" style="text;html=1;resizable=0;autosize=1;align=center;verticalAlign=middle;points=[];fillColor=none;strokeColor=none;rounded=0;" vertex="1" parent="1">
          <mxGeometry x="100" y="200" width="30" height="20" as="geometry" />
        </mxCell>
        <mxCell id="eCSi_L9bbj4N2d2f0AKq-7" value="警" style="text;html=1;resizable=0;autosize=1;align=center;verticalAlign=middle;points=[];fillColor=none;strokeColor=none;rounded=0;" vertex="1" parent="1">
          <mxGeometry x="80" y="200" width="30" height="20" as="geometry" />
        </mxCell>
        <mxCell id="eCSi_L9bbj4N2d2f0AKq-8" value="用" style="text;html=1;resizable=0;autosize=1;align=center;verticalAlign=middle;points=[];fillColor=none;strokeColor=none;rounded=0;" vertex="1" parent="1">
          <mxGeometry x="120" y="200" width="30" height="20" as="geometry" />
        </mxCell>
        <mxCell id="eCSi_L9bbj4N2d2f0AKq-9" value="锤" style="text;html=1;resizable=0;autosize=1;align=center;verticalAlign=middle;points=[];fillColor=none;strokeColor=none;rounded=0;" vertex="1" parent="1">
          <mxGeometry x="140" y="200" width="30" height="20" as="geometry" />
        </mxCell>
        <mxCell id="eCSi_L9bbj4N2d2f0AKq-10" value="子" style="text;html=1;resizable=0;autosize=1;align=center;verticalAlign=middle;points=[];fillColor=none;strokeColor=none;rounded=0;" vertex="1" parent="1">
          <mxGeometry x="160" y="200" width="30" height="20" as="geometry" />
        </mxCell>
        <mxCell id="eCSi_L9bbj4N2d2f0AKq-11" value="砸" style="text;html=1;resizable=0;autosize=1;align=center;verticalAlign=middle;points=[];fillColor=none;strokeColor=none;rounded=0;" vertex="1" parent="1">
          <mxGeometry x="180" y="200" width="30" height="20" as="geometry" />
        </mxCell>
        <mxCell id="eCSi_L9bbj4N2d2f0AKq-12" value="车" style="text;html=1;resizable=0;autosize=1;align=center;verticalAlign=middle;points=[];fillColor=none;strokeColor=none;rounded=0;" vertex="1" parent="1">
          <mxGeometry x="200" y="200" width="30" height="20" as="geometry" />
        </mxCell>
        <mxCell id="eCSi_L9bbj4N2d2f0AKq-13" value="门" style="text;html=1;resizable=0;autosize=1;align=center;verticalAlign=middle;points=[];fillColor=none;strokeColor=none;rounded=0;" vertex="1" parent="1">
          <mxGeometry x="220" y="200" width="30" height="20" as="geometry" />
        </mxCell>
        <mxCell id="eCSi_L9bbj4N2d2f0AKq-14" value="。" style="text;html=1;resizable=0;autosize=1;align=center;verticalAlign=middle;points=[];fillColor=none;strokeColor=none;rounded=0;" vertex="1" parent="1">
          <mxGeometry x="240" y="200" width="30" height="20" as="geometry" />
        </mxCell>
        <mxCell id="eCSi_L9bbj4N2d2f0AKq-15" value="0" style="text;html=1;resizable=0;autosize=1;align=center;verticalAlign=middle;points=[];fillColor=none;strokeColor=none;rounded=0;" vertex="1" parent="1">
          <mxGeometry x="75" y="220" width="20" height="20" as="geometry" />
        </mxCell>
        <mxCell id="eCSi_L9bbj4N2d2f0AKq-16" value="1" style="text;html=1;resizable=0;autosize=1;align=center;verticalAlign=middle;points=[];fillColor=none;strokeColor=none;rounded=0;" vertex="1" parent="1">
          <mxGeometry x="95" y="220" width="20" height="20" as="geometry" />
        </mxCell>
        <mxCell id="eCSi_L9bbj4N2d2f0AKq-17" value="2" style="text;html=1;resizable=0;autosize=1;align=center;verticalAlign=middle;points=[];fillColor=none;strokeColor=none;rounded=0;" vertex="1" parent="1">
          <mxGeometry x="115" y="220" width="20" height="20" as="geometry" />
        </mxCell>
        <mxCell id="eCSi_L9bbj4N2d2f0AKq-18" value="3" style="text;html=1;resizable=0;autosize=1;align=center;verticalAlign=middle;points=[];fillColor=none;strokeColor=none;rounded=0;" vertex="1" parent="1">
          <mxGeometry x="135" y="220" width="20" height="20" as="geometry" />
        </mxCell>
        <mxCell id="eCSi_L9bbj4N2d2f0AKq-19" value="4" style="text;html=1;resizable=0;autosize=1;align=center;verticalAlign=middle;points=[];fillColor=none;strokeColor=none;rounded=0;" vertex="1" parent="1">
          <mxGeometry x="155" y="220" width="20" height="20" as="geometry" />
        </mxCell>
        <mxCell id="eCSi_L9bbj4N2d2f0AKq-20" value="5" style="text;html=1;resizable=0;autosize=1;align=center;verticalAlign=middle;points=[];fillColor=none;strokeColor=none;rounded=0;" vertex="1" parent="1">
          <mxGeometry x="175" y="220" width="20" height="20" as="geometry" />
        </mxCell>
        <mxCell id="eCSi_L9bbj4N2d2f0AKq-21" value="6" style="text;html=1;resizable=0;autosize=1;align=center;verticalAlign=middle;points=[];fillColor=none;strokeColor=none;rounded=0;" vertex="1" parent="1">
          <mxGeometry x="195" y="220" width="20" height="20" as="geometry" />
        </mxCell>
        <mxCell id="eCSi_L9bbj4N2d2f0AKq-22" value="7" style="text;html=1;resizable=0;autosize=1;align=center;verticalAlign=middle;points=[];fillColor=none;strokeColor=none;rounded=0;" vertex="1" parent="1">
          <mxGeometry x="215" y="220" width="20" height="20" as="geometry" />
        </mxCell>
        <mxCell id="eCSi_L9bbj4N2d2f0AKq-23" value="8" style="text;html=1;resizable=0;autosize=1;align=center;verticalAlign=middle;points=[];fillColor=none;strokeColor=none;rounded=0;" vertex="1" parent="1">
          <mxGeometry x="235" y="220" width="20" height="20" as="geometry" />
        </mxCell>
        <mxCell id="eCSi_L9bbj4N2d2f0AKq-24" value="9" style="text;html=1;resizable=0;autosize=1;align=center;verticalAlign=middle;points=[];fillColor=none;strokeColor=none;rounded=0;" vertex="1" parent="1">
          <mxGeometry x="255" y="220" width="20" height="20" as="geometry" />
        </mxCell>
        <mxCell id="eCSi_L9bbj4N2d2f0AKq-25" value="" style="shape=crossbar;whiteSpace=wrap;html=1;rounded=1;" vertex="1" parent="1">
          <mxGeometry x="85" y="120" width="159" height="10" as="geometry" />
        </mxCell>
        <mxCell id="eCSi_L9bbj4N2d2f0AKq-26" value="" style="shape=crossbar;whiteSpace=wrap;html=1;rounded=1;" vertex="1" parent="1">
          <mxGeometry x="246" y="120" width="19" height="10" as="geometry" />
        </mxCell>
        <mxCell id="eCSi_L9bbj4N2d2f0AKq-27" value="" style="shape=crossbar;whiteSpace=wrap;html=1;rounded=1;" vertex="1" parent="1">
          <mxGeometry x="85" y="140" width="39" height="10" as="geometry" />
        </mxCell>
        <mxCell id="eCSi_L9bbj4N2d2f0AKq-28" value="" style="shape=crossbar;whiteSpace=wrap;html=1;rounded=1;" vertex="1" parent="1">
          <mxGeometry x="126" y="140" width="118" height="10" as="geometry" />
        </mxCell>
        <mxCell id="eCSi_L9bbj4N2d2f0AKq-29" value="" style="shape=crossbar;whiteSpace=wrap;html=1;rounded=1;" vertex="1" parent="1">
          <mxGeometry x="126" y="160" width="58" height="10" as="geometry" />
        </mxCell>
        <mxCell id="eCSi_L9bbj4N2d2f0AKq-32" value="" style="shape=crossbar;whiteSpace=wrap;html=1;rounded=1;" vertex="1" parent="1">
          <mxGeometry x="126" y="180" width="28" height="10" as="geometry" />
        </mxCell>
        <mxCell id="eCSi_L9bbj4N2d2f0AKq-34" value="" style="shape=crossbar;whiteSpace=wrap;html=1;rounded=1;" vertex="1" parent="1">
          <mxGeometry x="186" y="160" width="58" height="10" as="geometry" />
        </mxCell>
        <mxCell id="eCSi_L9bbj4N2d2f0AKq-36" value="" style="shape=crossbar;whiteSpace=wrap;html=1;rounded=1;" vertex="1" parent="1">
          <mxGeometry x="85" y="100" width="180" height="10" as="geometry" />
        </mxCell>
        <mxCell id="eCSi_L9bbj4N2d2f0AKq-38" value="" style="shape=crossbar;whiteSpace=wrap;html=1;rounded=1;" vertex="1" parent="1">
          <mxGeometry x="156" y="180" width="28" height="10" as="geometry" />
        </mxCell>
        <mxCell id="eCSi_L9bbj4N2d2f0AKq-40" value="S" style="text;html=1;resizable=0;autosize=1;align=center;verticalAlign=middle;points=[];fillColor=none;strokeColor=none;rounded=0;" vertex="1" parent="1">
          <mxGeometry x="160" y="90" width="20" height="20" as="geometry" />
        </mxCell>
        <mxCell id="eCSi_L9bbj4N2d2f0AKq-41" value="#3" style="text;html=1;resizable=0;autosize=1;align=center;verticalAlign=middle;points=[];fillColor=none;strokeColor=none;rounded=0;" vertex="1" parent="1">
          <mxGeometry x="145" y="110" width="30" height="20" as="geometry" />
        </mxCell>
        <mxCell id="eCSi_L9bbj4N2d2f0AKq-43" value="&lt;span class=&quot;fontstyle0&quot;&gt;∅&lt;/span&gt; &lt;br/&gt;" style="text;html=1;align=center;verticalAlign=middle;resizable=0;points=[];autosize=1;strokeColor=none;fillColor=none;" vertex="1" parent="1">
          <mxGeometry x="246" y="110" width="20" height="20" as="geometry" />
        </mxCell>
        <mxCell id="eCSi_L9bbj4N2d2f0AKq-44" value="#2-#1" style="text;html=1;resizable=0;autosize=1;align=center;verticalAlign=middle;points=[];fillColor=none;strokeColor=none;rounded=0;" vertex="1" parent="1">
          <mxGeometry x="79.5" y="130" width="50" height="20" as="geometry" />
        </mxCell>
        <mxCell id="eCSi_L9bbj4N2d2f0AKq-45" value="&lt;span class=&quot;fontstyle0&quot;&gt;∅&lt;/span&gt; &lt;br/&gt;" style="text;html=1;align=center;verticalAlign=middle;resizable=0;points=[];autosize=1;strokeColor=none;fillColor=none;" vertex="1" parent="1">
          <mxGeometry x="170" y="130" width="20" height="20" as="geometry" />
        </mxCell>
        <mxCell id="eCSi_L9bbj4N2d2f0AKq-46" value="#2" style="text;html=1;resizable=0;autosize=1;align=center;verticalAlign=middle;points=[];fillColor=none;strokeColor=none;rounded=0;" vertex="1" parent="1">
          <mxGeometry x="140" y="150" width="30" height="20" as="geometry" />
        </mxCell>
        <mxCell id="eCSi_L9bbj4N2d2f0AKq-47" value="#2-#1" style="text;html=1;resizable=0;autosize=1;align=center;verticalAlign=middle;points=[];fillColor=none;strokeColor=none;rounded=0;" vertex="1" parent="1">
          <mxGeometry x="190" y="150" width="50" height="20" as="geometry" />
        </mxCell>
        <mxCell id="eCSi_L9bbj4N2d2f0AKq-48" value="#1" style="text;html=1;resizable=0;autosize=1;align=center;verticalAlign=middle;points=[];fillColor=none;strokeColor=none;rounded=0;" vertex="1" parent="1">
          <mxGeometry x="126" y="170" width="30" height="20" as="geometry" />
        </mxCell>
        <mxCell id="eCSi_L9bbj4N2d2f0AKq-49" value="#1" style="text;html=1;resizable=0;autosize=1;align=center;verticalAlign=middle;points=[];fillColor=none;strokeColor=none;rounded=0;" vertex="1" parent="1">
          <mxGeometry x="154" y="170" width="30" height="20" as="geometry" />
        </mxCell>
      </root>
    </mxGraphModel>
  </diagram>
  <diagram id="JzCyQYxcee0qtIUECq4x" name="第 2 页">
    <mxGraphModel dx="1942" dy="1154" grid="1" gridSize="10" guides="1" tooltips="1" connect="1" arrows="1" fold="1" page="1" pageScale="1" pageWidth="827" pageHeight="1169" math="0" shadow="0">
      <root>
        <mxCell id="cXgA-AUDDl0KsnoSkkIn-0" />
        <mxCell id="cXgA-AUDDl0KsnoSkkIn-1" parent="cXgA-AUDDl0KsnoSkkIn-0" />
      </root>
    </mxGraphModel>
  </diagram>
</mxfile>
